<svg width="123" height="111" viewBox="0 0 123 111" fill="none" xmlns="http://www.w3.org/2000/svg">
<path d="M45.0264 40.1458C43.5601 39.5453 42.9329 38.7484 42.9936 37.5594C43.056 36.1715 42.2686 35.155 41.8947 34.7533C42.1206 33.8904 42.7808 30.9051 41.8954 28.3121C40.9439 25.5367 38.0389 21.2978 35.0415 17.1311C33.8145 15.4199 33.7565 13.5599 33.6894 11.4061C33.6251 9.35186 33.5527 7.02332 32.4071 4.43478C31.1615 1.61624 28.6622 0 25.5495 0C23.6979 0 21.7972 0.578692 20.3346 1.58755C17.3395 3.65461 17.7354 8.16136 17.9973 11.1435C18.0332 11.5519 18.067 11.9376 18.0867 12.267C18.2611 15.1876 18.1024 16.727 17.8949 17.1949C17.7606 17.5006 17.0996 18.3708 16.4001 19.2921C15.6767 20.2449 14.8565 21.3249 14.1842 22.3313C13.3821 23.5423 12.7345 25.3933 12.1083 27.1833C11.6501 28.4931 11.2173 29.7303 10.796 30.4697C9.99744 31.892 10.1961 33.2182 10.362 33.8312C10.0597 34.0412 9.62301 34.4546 9.25432 35.234C8.80874 36.1848 7.90464 36.6958 6.02462 37.0573C5.16068 37.234 4.56494 37.5973 4.25346 38.1369C3.80018 38.9224 4.04707 39.9092 4.27232 40.5837C4.60511 41.5752 4.39773 42.2027 4.02068 43.3421C3.93379 43.605 3.83526 43.9027 3.73543 44.2311C3.57821 44.7493 3.63494 45.2204 3.90363 45.6314C4.61363 46.7168 6.68545 47.0996 8.81825 47.3514C10.0917 47.5026 11.4855 48.0119 12.8335 48.5047C14.1544 48.9873 15.5201 49.4865 16.7616 49.638C16.9503 49.6618 17.1372 49.6737 17.3173 49.6737C19.1918 49.6737 20.0387 48.43 20.3072 47.919C20.9805 47.7816 23.3026 47.3416 25.6959 47.2826C28.0854 47.2144 30.3974 47.6862 31.0523 47.8329C31.2582 48.227 31.801 49.1272 32.6663 49.5909C33.1419 49.8509 33.8037 50 34.4815 50H34.4817C35.2056 50 36.5829 49.8288 37.6729 48.6821C38.7601 47.53 41.4765 46.0591 43.4601 44.9852C43.9028 44.7455 44.3169 44.5212 44.68 44.3188C45.7942 43.7011 46.4023 42.8184 46.348 41.8973C46.3028 41.1322 45.7964 40.4611 45.0264 40.1458ZM20.359 39.924C20.2203 38.9469 18.9634 37.9779 17.5078 36.856C16.3176 35.9384 14.9686 34.8986 14.597 34.0179C13.8289 32.2012 14.4344 29.0067 15.4899 27.3618C16.0116 26.5382 16.4376 25.2892 16.8498 24.0813C17.2947 22.777 17.7549 21.4285 18.2695 20.8382C19.0844 19.9165 19.8375 18.1232 19.9709 16.7099C20.7341 17.4385 21.9178 18.3629 23.0115 18.3629C23.1798 18.3629 23.3433 18.3409 23.4995 18.2968C24.2477 18.0808 25.3482 17.4449 26.4125 16.8301C27.33 16.2999 28.4615 15.6462 28.8872 15.5866C29.6172 16.6349 33.8591 26.022 34.2925 29.0366C34.6355 31.4218 34.2732 33.3936 34.091 34.1659C33.9445 34.1459 33.7697 34.1297 33.5861 34.1297C32.4046 34.1297 32.0918 34.7746 32.0104 35.1597C31.8009 36.1602 31.7787 39.3594 31.7764 40.0783C31.3492 40.6211 29.1887 43.1771 26.0869 43.6366C24.8234 43.8203 23.6436 43.9134 22.5803 43.9134C21.6715 43.9134 21.0914 43.8432 20.8506 43.8066L19.2919 42.0232C19.9065 41.7197 20.521 41.0794 20.359 39.924ZM22.3369 10.5163C22.2882 10.5373 22.2403 10.5597 22.1933 10.5837C22.1885 10.4781 22.1775 10.371 22.1606 10.2637C21.9905 9.28415 21.341 8.57316 20.6165 8.57316C20.5629 8.57316 20.509 8.57726 20.4498 8.58628C20.0188 8.65808 19.6808 8.98186 19.4955 9.44087C19.658 8.43366 20.2287 7.68791 20.9057 7.68791C21.7008 7.68791 22.3724 8.75939 22.3724 10.0276C22.3724 10.1874 22.3608 10.3465 22.3369 10.5163ZM28.5149 11.2715C28.5877 11.0397 28.6271 10.7889 28.6271 10.5286C28.6271 9.37874 27.8976 8.47792 26.9662 8.47792C26.0561 8.47792 25.3156 9.39776 25.3156 10.5286C25.3156 10.6056 25.3193 10.6828 25.3266 10.7599C25.2784 10.7414 25.2313 10.7233 25.1854 10.706C25.0807 10.3887 25.0277 10.0578 25.0277 9.71989C25.0277 8.34497 25.9064 7.22627 26.9867 7.22627C28.0669 7.22627 28.9458 8.34497 28.9458 9.71989C28.9458 10.2919 28.7879 10.8378 28.5149 11.2715ZM27.7184 13.9476C27.7028 14.0171 27.6697 14.0479 27.3035 14.2384C27.1185 14.3347 26.8884 14.4545 26.6003 14.6299L26.4079 14.7465C25.6344 15.2153 23.8234 16.3135 23.3318 16.378C22.9979 16.4229 22.7913 16.2934 22.3269 15.9778C22.2221 15.9065 22.1106 15.8307 21.9918 15.7545C21.1546 15.2052 20.616 14.6001 20.5552 14.3635C20.8282 14.1525 21.5047 13.6245 21.8511 13.3119C22.5542 12.6581 23.2618 12.2188 23.612 12.2188C23.6305 12.2188 23.6472 12.2201 23.6646 12.2233C24.0761 12.296 25.091 12.7011 25.8323 12.9968C26.1749 13.1335 26.4708 13.2516 26.679 13.3263C27.3349 13.5516 27.6769 13.8398 27.7184 13.9476ZM33.6114 44.5003C33.9814 42.8312 34.4076 40.5607 34.3386 39.2222C34.3227 38.9181 34.2958 38.5871 34.2697 38.2671C34.221 37.6687 34.1487 36.7794 34.2233 36.5156C34.2381 36.5087 34.2545 36.5028 34.2727 36.4978C34.2758 37.263 34.442 38.7894 35.6627 39.3217C36.0265 39.4804 36.4422 39.5607 36.8983 39.5607C38.1211 39.5607 39.4778 38.9609 40.0335 38.4051C40.3608 38.0779 40.636 37.6776 40.8288 37.3605C40.8709 37.484 40.8968 37.6453 40.8832 37.8532C40.8106 38.9819 41.3591 40.4793 42.4031 41.0311L42.555 41.1109C42.9268 41.306 43.9144 41.8245 43.9303 42.0704C43.9303 42.0704 43.9219 42.0994 43.8668 42.1506C43.6195 42.3766 42.7488 42.8212 41.9068 43.2512C40.4132 44.0139 38.7203 44.8783 37.9599 45.678C36.8894 46.8045 35.6786 47.5613 34.9474 47.5613C34.8594 47.5613 34.7792 47.5501 34.7079 47.5275C33.9138 47.2799 33.2602 46.1342 33.6114 44.5003ZM6.54381 40.2424C6.46282 39.8633 6.39889 39.5642 6.46758 39.2743C6.51741 39.0596 7.57759 38.8294 8.03038 38.7312C8.66694 38.593 9.3253 38.4502 9.7558 38.1889C10.3379 37.8363 10.6532 37.186 10.9312 36.6122C11.1325 36.1973 11.3404 35.7682 11.5878 35.6274C11.6017 35.6192 11.623 35.6097 11.6637 35.6097C12.1271 35.6097 13.0996 36.584 13.6599 37.456C13.8021 37.6758 14.0653 38.1163 14.3699 38.6263C15.2809 40.1506 16.5283 42.2383 17.1798 42.938C17.7668 43.567 18.7172 44.7763 18.4834 45.8135C18.3122 46.6183 17.4011 47.2727 17.1862 47.4175C17.1081 47.4352 17.0116 47.4442 16.898 47.4442C15.6511 47.4442 13.1829 46.4068 11.8568 45.8494L11.6606 45.767C10.9201 45.4565 9.71121 45.2609 8.54218 45.0717C7.61201 44.9211 6.33823 44.715 6.12708 44.5288C5.95594 44.3368 6.15446 43.7127 6.32954 43.1621C6.45561 42.7663 6.58578 42.3571 6.65709 41.9288C6.75824 41.2455 6.63922 40.6893 6.54381 40.2424Z" fill="#1F2937"/>
<rect x="94.397" y="25" width="2" height="84" transform="rotate(45 94.397 25)" fill="#1F2937"/>
<g clip-path="url(#clip0_72551_3560)">
<path fill-rule="evenodd" clip-rule="evenodd" d="M99.6636 87.0852C99.6744 92.0825 99.6873 100.573 99.6981 107.172C107.468 108.394 115.238 109.653 122.996 111C122.996 103.122 123.004 95.2781 122.996 87.7822C115.219 87.7822 107.445 87.0852 99.6636 87.0852ZM80 87.0876V104.054C85.8605 104.974 91.721 105.852 97.5707 106.857C97.5815 100.293 97.5664 93.7272 97.5664 87.1633C91.7102 87.1758 85.8562 87.0652 80 87.0876ZM80 68.1082V85.0271C85.8605 85.0446 91.721 84.9415 97.5815 84.949C97.5772 78.4001 97.5772 71.8592 97.5707 65.3103C91.7059 66.1623 85.8411 67.0637 80 68.1082ZM123 84.6792C115.234 84.7142 107.468 84.8519 99.6981 84.8794C99.6938 78.223 99.6938 71.5747 99.6981 64.9233C107.453 63.5466 115.226 62.2518 122.996 61C123 68.8957 122.996 76.7835 123 84.6792Z" fill="#1F2937"/>
</g>
<defs>
<clipPath id="clip0_72551_3560">
<rect width="43" height="50" fill="white" transform="translate(80 61)"/>
</clipPath>
</defs>
</svg>
